#define b7eb34eb0e554cb8f0dae193ebc78135P9scLog3P1l2f0w9_width 128
#define b7eb34eb0e554cb8f0dae193ebc78135P9scLog3P1l2f0w9_height 128
static char b7eb34eb0e554cb8f0dae193ebc78135P9scLog3P1l2f0w9_bits[] = {
  0x00, 0x00, 0x00, 0x00, 0x00, 0x00, 0x80, 0xFB, 0x7F, 0x01, 0x00, 0x00, 
  0x00, 0x00, 0x00, 0x00, 0x00, 0x00, 0x00, 0x00, 0x00, 0x00, 0xF8, 0xFF, 
  0xFF, 0x3F, 0x00, 0x00, 0x00, 0x00, 0x00, 0x00, 0x00, 0x00, 0x00, 0x00, 
  0x00, 0xC0, 0xFF, 0xFF, 0xFF, 0xFF, 0x03, 0x00, 0x00, 0x00, 0x00, 0x00, 
  0x00, 0x00, 0x00, 0x00, 0x00, 0xF8, 0xFF, 0xFF, 0xFF, 0xFF, 0x1F, 0x00, 
  0x00, 0x00, 0x00, 0x00, 0x00, 0x00, 0x00, 0x00, 0x00, 0xFE, 0xFF, 0x09, 
  0xA0, 0xFF, 0xFF, 0x00, 0x00, 0x00, 0x00, 0x00, 0x00, 0x00, 0x00, 0x00, 
  0xC0, 0xFF, 0x07, 0x00, 0x00, 0xE0, 0xFF, 0x03, 0x00, 0x00, 0x00, 0x00, 
  0x00, 0x00, 0x00, 0x00, 0xF0, 0x7F, 0x00, 0x00, 0x00, 0x00, 0xFE, 0x0F, 
  0x00, 0x00, 0x00, 0x00, 0x00, 0x00, 0x00, 0x00, 0xFC, 0x0F, 0x00, 0x00, 
  0x00, 0x00, 0xF0, 0x3F, 0x00, 0x00, 0x00, 0x00, 0x00, 0x00, 0x00, 0x00, 
  0xFF, 0x01, 0x00, 0x00, 0x00, 0x00, 0x80, 0xFF, 0x00, 0x00, 0x00, 0x00, 
  0x00, 0x00, 0x00, 0xC0, 0x7F, 0x00, 0x00, 0x00, 0x00, 0x00, 0x00, 0xFE, 
  0x03, 0x00, 0x00, 0x00, 0x00, 0x00, 0x00, 0xE0, 0x1F, 0x00, 0x00, 0x00, 
  0x00, 0x00, 0x00, 0xF8, 0x07, 0x00, 0x00, 0x00, 0x00, 0x00, 0x00, 0xF8, 
  0x0F, 0x00, 0x00, 0x00, 0x00, 0x00, 0x00, 0xE0, 0x1F, 0x00, 0x00, 0x00, 
  0x00, 0x00, 0x00, 0xFC, 0x01, 0x00, 0x00, 0x00, 0x00, 0x00, 0x00, 0x80, 
  0x3F, 0x00, 0x00, 0x00, 0x00, 0x00, 0x00, 0xFE, 0x00, 0x00, 0x00, 0x00, 
  0x00, 0x00, 0x00, 0x00, 0x7F, 0x00, 0x00, 0x00, 0x00, 0x00, 0x80, 0x3F, 
  0x00, 0x00, 0x00, 0x00, 0x00, 0x00, 0x00, 0x00, 0xFC, 0x01, 0x00, 0x00, 
  0x00, 0x00, 0xC0, 0x1F, 0x00, 0x00, 0x00, 0x00, 0x00, 0x00, 0x00, 0x00, 
  0xF8, 0x01, 0x00, 0x00, 0x00, 0x00, 0xE0, 0x0F, 0x00, 0x00, 0x00, 0x00, 
  0x00, 0x00, 0x00, 0x00, 0xE0, 0x07, 0x00, 0x00, 0x00, 0x00, 0xF0, 0x03, 
  0x00, 0x00, 0x00, 0x00, 0x00, 0x00, 0x00, 0x00, 0xC0, 0x0F, 0x00, 0x00, 
  0x00, 0x00, 0xF8, 0x01, 0x00, 0x00, 0x00, 0x00, 0x00, 0x00, 0x00, 0x00, 
  0x80, 0x1F, 0x00, 0x00, 0x00, 0x00, 0xFC, 0x00, 0x00, 0x00, 0x00, 0x00, 
  0x00, 0x00, 0x00, 0x00, 0x00, 0x3F, 0x00, 0x00, 0x00, 0x00, 0x7E, 0x00, 
  0x00, 0x00, 0x00, 0xF0, 0x0F, 0x00, 0x00, 0x00, 0x00, 0x7E, 0x00, 0x00, 
  0x00, 0x00, 0x3F, 0x00, 0x00, 0x00, 0x00, 0xFC, 0x3F, 0x00, 0x00, 0x00, 
  0x00, 0xFC, 0x00, 0x00, 0x00, 0x80, 0x1F, 0x00, 0x00, 0x00, 0x00, 0xFF, 
  0xFF, 0x00, 0x00, 0x00, 0x00, 0xF8, 0x01, 0x00, 0x00, 0x80, 0x0F, 0x00, 
  0x00, 0x00, 0x80, 0xFF, 0xFF, 0x01, 0x00, 0x00, 0x00, 0xF0, 0x01, 0x00, 
  0x00, 0xC0, 0x07, 0x00, 0x00, 0x00, 0xC0, 0x1F, 0xF8, 0x03, 0x00, 0x00, 
  0x00, 0xE0, 0x03, 0x00, 0x00, 0xE0, 0x03, 0x00, 0x00, 0x00, 0xE0, 0x07, 
  0xE0, 0x07, 0x00, 0x00, 0x00, 0xC0, 0x07, 0x00, 0x00, 0xF0, 0x01, 0x00, 
  0x00, 0x00, 0xE0, 0x03, 0xC0, 0x07, 0x00, 0x00, 0x00, 0x80, 0x0F, 0x00, 
  0x00, 0xF8, 0x01, 0x00, 0x00, 0x00, 0xF0, 0x01, 0x80, 0x0F, 0x00, 0x00, 
  0x00, 0x00, 0x1F, 0x00, 0x00, 0xF8, 0x00, 0x00, 0x00, 0x00, 0xF0, 0x00, 
  0x00, 0x0F, 0x00, 0x00, 0x00, 0x00, 0x1F, 0x00, 0x00, 0x7C, 0x00, 0x00, 
  0x00, 0x00, 0xF0, 0x00, 0x00, 0x1F, 0x00, 0x00, 0x00, 0x00, 0x3E, 0x00, 
  0x00, 0x3E, 0x00, 0x00, 0x00, 0x00, 0x78, 0x00, 0x00, 0x1E, 0x00, 0x00, 
  0x00, 0x00, 0x7C, 0x00, 0x00, 0x3E, 0x00, 0x00, 0x00, 0x00, 0x78, 0x00, 
  0x00, 0x1E, 0x00, 0x00, 0x00, 0x00, 0x7C, 0x00, 0x00, 0x1F, 0x00, 0x00, 
  0x00, 0x00, 0x78, 0x00, 0x00, 0x1E, 0x00, 0x00, 0x00, 0x00, 0xF8, 0x00, 
  0x00, 0x1F, 0x00, 0x00, 0x00, 0x00, 0x78, 0x00, 0x00, 0x1E, 0x00, 0x00, 
  0x00, 0x00, 0xF0, 0x00, 0x80, 0x0F, 0x00, 0x00, 0x00, 0x00, 0x78, 0x00, 
  0x00, 0x1E, 0x00, 0x00, 0x00, 0x00, 0xF0, 0x01, 0x80, 0x07, 0x00, 0x00, 
  0x00, 0x00, 0x78, 0x00, 0x00, 0x1E, 0x00, 0x00, 0x00, 0x00, 0xE0, 0x01, 
  0xC0, 0x07, 0x00, 0x00, 0x00, 0x00, 0xF8, 0x00, 0x00, 0x1F, 0x00, 0x00, 
  0x00, 0x00, 0xE0, 0x03, 0xC0, 0x03, 0x00, 0x00, 0x00, 0x00, 0xF0, 0x00, 
  0x00, 0x0F, 0x00, 0x00, 0x00, 0x00, 0xC0, 0x03, 0xE0, 0x03, 0x00, 0x00, 
  0x00, 0x00, 0xF0, 0x01, 0x80, 0x0F, 0x00, 0x00, 0x00, 0x00, 0xC0, 0x07, 
  0xE0, 0x01, 0x00, 0x00, 0x00, 0x00, 0xE0, 0x03, 0xC0, 0x07, 0x00, 0x00, 
  0x00, 0x00, 0x80, 0x07, 0xF0, 0x01, 0x00, 0x00, 0x00, 0x00, 0xE0, 0x07, 
  0xE0, 0x07, 0x00, 0x00, 0x00, 0x00, 0x80, 0x0F, 0xF0, 0x01, 0x00, 0x00, 
  0x00, 0x00, 0xC0, 0x1F, 0xF8, 0x03, 0x00, 0x00, 0x00, 0x00, 0x00, 0x0F, 
  0xF0, 0x00, 0x00, 0x00, 0x00, 0x00, 0x80, 0xFF, 0xFF, 0x01, 0x00, 0x00, 
  0x00, 0x00, 0x00, 0x0F, 0xF8, 0x00, 0x00, 0x00, 0x00, 0x00, 0x00, 0xFF, 
  0xFF, 0x00, 0x00, 0x00, 0x00, 0x00, 0x00, 0x1F, 0x78, 0x00, 0x00, 0x00, 
  0x00, 0x00, 0x00, 0xFC, 0x3F, 0x00, 0x00, 0x00, 0x00, 0x00, 0x00, 0x1E, 
  0x78, 0x00, 0x00, 0x00, 0x00, 0x00, 0x00, 0xF0, 0x0F, 0x00, 0x00, 0x00, 
  0x00, 0x00, 0x00, 0x1E, 0x7C, 0x00, 0x00, 0x00, 0x00, 0x00, 0x00, 0x00, 
  0x00, 0x00, 0x00, 0x00, 0x00, 0x00, 0x00, 0x3E, 0x3C, 0x00, 0x00, 0x00, 
  0x00, 0x00, 0x00, 0x00, 0x00, 0x00, 0x00, 0x00, 0x00, 0x00, 0x00, 0x3C, 
  0x3C, 0x00, 0x00, 0x00, 0x00, 0x00, 0x00, 0x00, 0x00, 0x00, 0x00, 0x00, 
  0x00, 0x00, 0x00, 0x3C, 0x3C, 0x00, 0x00, 0x00, 0x00, 0x00, 0x00, 0x00, 
  0x00, 0x00, 0x00, 0x00, 0x00, 0x00, 0x00, 0x3C, 0x1E, 0x00, 0x00, 0x00, 
  0x00, 0x00, 0x00, 0x00, 0x00, 0x00, 0x00, 0x00, 0x00, 0x00, 0x00, 0x7C, 
  0x3E, 0x00, 0x00, 0x00, 0x00, 0x00, 0x00, 0x00, 0x00, 0x00, 0x00, 0x00, 
  0x00, 0x00, 0x00, 0x78, 0x1E, 0x00, 0x00, 0x00, 0x00, 0x00, 0x00, 0x00, 
  0x00, 0x00, 0x00, 0x00, 0x00, 0x00, 0x00, 0x78, 0x1E, 0x00, 0x00, 0x00, 
  0x00, 0x00, 0x00, 0x00, 0x00, 0x00, 0x00, 0x00, 0x00, 0x00, 0x00, 0x78, 
  0x1E, 0x00, 0x00, 0x00, 0x00, 0x00, 0x00, 0x00, 0x00, 0x00, 0x00, 0x00, 
  0x00, 0x00, 0x00, 0x78, 0x1F, 0x00, 0x00, 0x00, 0x00, 0x00, 0x00, 0xE0, 
  0x07, 0x00, 0x00, 0x00, 0x00, 0x00, 0x00, 0xF8, 0x0E, 0x00, 0x00, 0x00, 
  0x00, 0x00, 0x00, 0xFC, 0x3F, 0x00, 0x00, 0x00, 0x00, 0x00, 0x00, 0xF8, 
  0x1F, 0x00, 0x00, 0x00, 0x00, 0x00, 0x00, 0xFF, 0xFF, 0x00, 0x00, 0x00, 
  0x00, 0x00, 0x00, 0xF0, 0x0F, 0x00, 0x00, 0x00, 0x00, 0x00, 0x80, 0xFF, 
  0xFF, 0x01, 0x00, 0x00, 0x00, 0x00, 0x00, 0xF0, 0x1F, 0x00, 0x00, 0x00, 
  0x00, 0x00, 0xC0, 0x3F, 0xF8, 0x03, 0x00, 0x00, 0x00, 0x00, 0x00, 0xF0, 
  0x0F, 0x00, 0x00, 0x00, 0x00, 0x00, 0xE0, 0x07, 0xE0, 0x07, 0x00, 0x00, 
  0x00, 0x00, 0x00, 0xF0, 0x0F, 0x00, 0x00, 0x00, 0x00, 0x00, 0xE0, 0x03, 
  0xC0, 0x07, 0x00, 0x00, 0x00, 0x00, 0x00, 0xF0, 0x0F, 0x00, 0x00, 0x00, 
  0x00, 0x00, 0xF0, 0x01, 0x80, 0x0F, 0x00, 0x00, 0x00, 0x00, 0x00, 0xF0, 
  0x0F, 0x00, 0x00, 0x00, 0x00, 0x00, 0xF0, 0x00, 0x00, 0x0F, 0x00, 0x00, 
  0x00, 0x00, 0x00, 0xF0, 0x0F, 0x00, 0x00, 0x00, 0x00, 0x00, 0xF0, 0x00, 
  0x00, 0x1F, 0x00, 0x00, 0x00, 0x00, 0x00, 0xF0, 0x0F, 0x00, 0x00, 0x00, 
  0x00, 0x00, 0xF8, 0x00, 0x00, 0x1E, 0x00, 0x00, 0x00, 0x00, 0x00, 0xF0, 
  0x1F, 0x00, 0x00, 0x00, 0x00, 0x00, 0x78, 0x00, 0x00, 0x1E, 0x00, 0x00, 
  0x00, 0x00, 0x00, 0xF0, 0x0F, 0x00, 0x00, 0x00, 0x00, 0x00, 0x78, 0x00, 
  0x00, 0x1E, 0x00, 0x00, 0x00, 0x00, 0x00, 0xF0, 0x0F, 0x00, 0x00, 0x00, 
  0x00, 0x00, 0x78, 0x00, 0x00, 0x1E, 0x00, 0x00, 0x00, 0x00, 0x00, 0xF8, 
  0x0F, 0x00, 0x00, 0x00, 0x00, 0x00, 0x78, 0x00, 0x00, 0x1E, 0x00, 0x00, 
  0x00, 0x00, 0x00, 0xF0, 0x0F, 0x00, 0x00, 0x00, 0x00, 0x00, 0x78, 0x00, 
  0x00, 0x1E, 0x00, 0x00, 0x00, 0x00, 0x00, 0xF0, 0x1F, 0x00, 0x00, 0x00, 
  0x00, 0x00, 0x78, 0x00, 0x00, 0x1E, 0x00, 0x00, 0x00, 0x00, 0x00, 0xF0, 
  0x1E, 0x00, 0x00, 0x00, 0x00, 0x00, 0x78, 0x00, 0x00, 0x1E, 0x00, 0x00, 
  0x00, 0x00, 0x00, 0x78, 0x1E, 0x00, 0x00, 0x00, 0x00, 0x00, 0x78, 0x00, 
  0x00, 0x1E, 0x00, 0x00, 0x00, 0x00, 0x00, 0xF8, 0x1E, 0x00, 0x00, 0x00, 
  0x00, 0x00, 0x78, 0x00, 0x00, 0x1E, 0x00, 0x00, 0x00, 0x00, 0x00, 0x78, 
  0x1E, 0x00, 0x00, 0x00, 0x00, 0x00, 0x78, 0x00, 0x00, 0x1E, 0x00, 0x00, 
  0x00, 0x00, 0x00, 0x78, 0x1E, 0x00, 0x00, 0x00, 0x00, 0x00, 0x78, 0x00, 
  0x00, 0x1E, 0x00, 0x00, 0x00, 0x00, 0x00, 0x78, 0x3E, 0x00, 0x00, 0x00, 
  0x00, 0x00, 0x78, 0x00, 0x00, 0x1E, 0x00, 0x00, 0x00, 0x00, 0x00, 0x7C, 
  0x3C, 0x00, 0x00, 0x00, 0x00, 0x00, 0x78, 0x00, 0x00, 0x1E, 0x00, 0x00, 
  0x00, 0x00, 0x00, 0x3C, 0x3C, 0x00, 0x00, 0x00, 0x00, 0x00, 0x78, 0x00, 
  0x00, 0x1E, 0x00, 0x00, 0x00, 0x00, 0x00, 0x3C, 0x3C, 0x00, 0x00, 0x00, 
  0x00, 0x00, 0x78, 0x00, 0x00, 0x1E, 0x00, 0x00, 0x00, 0x00, 0x00, 0x3C, 
  0x7C, 0x00, 0x00, 0x00, 0x00, 0x00, 0x78, 0x00, 0x00, 0x1E, 0x00, 0x00, 
  0x00, 0x00, 0x00, 0x3E, 0x78, 0x00, 0x00, 0x00, 0x00, 0x00, 0x78, 0x00, 
  0x00, 0x1E, 0x00, 0x00, 0x00, 0x00, 0x00, 0x1E, 0x78, 0x00, 0x00, 0x00, 
  0x00, 0x00, 0x78, 0x00, 0x00, 0x1E, 0x00, 0x00, 0x00, 0x00, 0x00, 0x1E, 
  0xF8, 0x00, 0x00, 0x00, 0x00, 0x00, 0x78, 0x00, 0x00, 0x1E, 0x00, 0x00, 
  0x00, 0x00, 0x00, 0x1F, 0xF0, 0x00, 0x00, 0x00, 0x00, 0x00, 0x78, 0x00, 
  0x00, 0x1E, 0x00, 0x00, 0x00, 0x00, 0x00, 0x0F, 0xF0, 0x01, 0x00, 0x00, 
  0x00, 0x00, 0x78, 0x00, 0x00, 0x1E, 0x00, 0x00, 0x00, 0x00, 0x00, 0x0F, 
  0xF0, 0x01, 0x00, 0x00, 0x00, 0x00, 0x78, 0x00, 0x00, 0x1E, 0x00, 0x00, 
  0x00, 0x00, 0x80, 0x0F, 0xE0, 0x01, 0x00, 0x00, 0x00, 0x00, 0x78, 0x00, 
  0x00, 0x1E, 0x00, 0x00, 0x00, 0x00, 0x80, 0x07, 0xE0, 0x03, 0x00, 0x00, 
  0x00, 0x00, 0x78, 0x00, 0x00, 0x1E, 0x00, 0x00, 0x00, 0x00, 0xC0, 0x07, 
  0xC0, 0x03, 0x00, 0x00, 0x00, 0x00, 0x78, 0x00, 0x00, 0x1E, 0x00, 0x00, 
  0x00, 0x00, 0xC0, 0x03, 0xC0, 0x07, 0x00, 0x00, 0x00, 0x00, 0x78, 0x00, 
  0x00, 0x1E, 0x00, 0x00, 0x00, 0x00, 0xE0, 0x03, 0x80, 0x07, 0x00, 0x00, 
  0x00, 0x00, 0x78, 0x00, 0x00, 0x1E, 0x00, 0x00, 0x00, 0x00, 0xE0, 0x01, 
  0x80, 0x0F, 0x00, 0x00, 0x00, 0x00, 0x78, 0x00, 0x00, 0x1E, 0x00, 0x00, 
  0x00, 0x00, 0xF0, 0x01, 0x00, 0x0F, 0x00, 0x00, 0x00, 0x00, 0x78, 0x00, 
  0x00, 0x1E, 0x00, 0x00, 0x00, 0x00, 0xF0, 0x00, 0x00, 0x1F, 0x00, 0x00, 
  0x00, 0x00, 0x78, 0x00, 0x00, 0x1E, 0x00, 0x00, 0x00, 0x00, 0xF8, 0x00, 
  0x00, 0x0F, 0x00, 0x00, 0x00, 0x00, 0x78, 0x00, 0x00, 0x1E, 0x00, 0x00, 
  0x00, 0x00, 0x7C, 0x00, 0x00, 0x0F, 0x00, 0x00, 0x00, 0x00, 0xF8, 0x00, 
  0x00, 0x1F, 0x00, 0x00, 0x00, 0x00, 0x7C, 0x00, 0x80, 0x0F, 0x00, 0x00, 
  0x00, 0x00, 0xF8, 0x00, 0x00, 0x0F, 0x00, 0x00, 0x00, 0x00, 0x3E, 0x00, 
  0x80, 0x07, 0x00, 0x00, 0x00, 0x00, 0xF0, 0x00, 0x00, 0x0F, 0x00, 0x00, 
  0x00, 0x00, 0x1F, 0x00, 0x80, 0x07, 0x00, 0x00, 0x00, 0x00, 0xF0, 0x01, 
  0x80, 0x0F, 0x00, 0x00, 0x00, 0x00, 0x1F, 0x00, 0x80, 0x07, 0x00, 0x00, 
  0x00, 0x00, 0xE0, 0x03, 0xC0, 0x07, 0x00, 0x00, 0x00, 0x80, 0x0F, 0x00, 
  0xC0, 0x07, 0x00, 0x00, 0x00, 0x00, 0xE0, 0x07, 0xE0, 0x07, 0x00, 0x00, 
  0x00, 0xC0, 0x07, 0x00, 0xC0, 0x03, 0x00, 0x00, 0x00, 0x00, 0xC0, 0x3F, 
  0xF8, 0x03, 0x00, 0x00, 0x00, 0xE0, 0x03, 0x00, 0xC0, 0x03, 0x00, 0x00, 
  0x00, 0x00, 0x80, 0xFF, 0xFF, 0x01, 0x00, 0x00, 0x00, 0xF0, 0x03, 0x00, 
  0xC0, 0x03, 0x00, 0x00, 0x00, 0x00, 0x00, 0xFF, 0xFF, 0x00, 0x00, 0x00, 
  0x00, 0xF8, 0x01, 0x00, 0xE0, 0x03, 0x00, 0x00, 0x00, 0x00, 0x00, 0xFC, 
  0x3F, 0x00, 0x00, 0x00, 0x00, 0xF8, 0x00, 0x00, 0xE0, 0x01, 0x00, 0x00, 
  0x00, 0x00, 0x00, 0xE0, 0x07, 0x00, 0x00, 0x00, 0x00, 0x7E, 0x00, 0x00, 
  0xE0, 0x01, 0x00, 0x00, 0x00, 0x00, 0x00, 0x00, 0x00, 0x00, 0x00, 0x00, 
  0x00, 0x3F, 0x00, 0x00, 0xF0, 0x01, 0x00, 0x00, 0x00, 0x00, 0x00, 0x00, 
  0x00, 0x00, 0x00, 0x00, 0x80, 0x1F, 0x00, 0x00, 0xF0, 0x00, 0x00, 0x00, 
  0x00, 0x00, 0x00, 0x00, 0x00, 0x00, 0x00, 0x00, 0xC0, 0x0F, 0x00, 0x00, 
  0xF0, 0x00, 0x00, 0x00, 0x00, 0x00, 0x00, 0x00, 0x00, 0x00, 0x00, 0x00, 
  0xE0, 0x07, 0x00, 0x00, 0xF0, 0x00, 0x00, 0x00, 0x00, 0x00, 0x00, 0x00, 
  0x00, 0x00, 0x00, 0x00, 0xF8, 0x03, 0x00, 0x00, 0xF8, 0x00, 0x00, 0x00, 
  0x00, 0x00, 0x00, 0x00, 0x00, 0x00, 0x00, 0x00, 0xFC, 0x01, 0x00, 0x00, 
  0x78, 0x00, 0x00, 0x00, 0x00, 0x00, 0x00, 0x00, 0x00, 0x00, 0x00, 0x00, 
  0x7F, 0x00, 0x00, 0x00, 0x78, 0x00, 0x00, 0x00, 0x00, 0x00, 0x00, 0x00, 
  0x00, 0x00, 0x00, 0x80, 0x3F, 0x00, 0x00, 0x00, 0x7C, 0x00, 0x00, 0xC0, 
  0x07, 0x00, 0x00, 0x00, 0x00, 0x00, 0x00, 0xE0, 0x1F, 0x00, 0x00, 0x00, 
  0x3C, 0x00, 0x00, 0xFC, 0x1F, 0x00, 0x00, 0x00, 0x00, 0x00, 0x00, 0xF8, 
  0x07, 0x00, 0x00, 0x00, 0x3C, 0x00, 0xC0, 0xFF, 0x7F, 0x00, 0x00, 0x00, 
  0x00, 0x00, 0x00, 0xFE, 0x03, 0x00, 0x00, 0x00, 0x3C, 0x00, 0xF8, 0xFF, 
  0xFF, 0x01, 0x00, 0x00, 0x00, 0x00, 0x80, 0xFF, 0x00, 0x00, 0x00, 0x00, 
  0x3E, 0x80, 0xFF, 0x7F, 0xFC, 0x0F, 0x00, 0x00, 0x00, 0x00, 0xF0, 0x3F, 
  0x00, 0x00, 0x00, 0x00, 0x1E, 0xF8, 0xFF, 0x0F, 0xF0, 0x7F, 0x00, 0x00, 
  0x00, 0x00, 0xFE, 0x0F, 0x00, 0x00, 0x00, 0x00, 0x9E, 0xFF, 0x7F, 0x00, 
  0xC0, 0xFF, 0x07, 0x00, 0x00, 0xE0, 0xFF, 0x07, 0x00, 0x00, 0x00, 0x00, 
  0xFE, 0xFF, 0x0F, 0x00, 0x00, 0xFF, 0xFF, 0x02, 0x80, 0xFF, 0xFF, 0x00, 
  0x00, 0x00, 0x00, 0x00, 0xFF, 0xFF, 0x00, 0x00, 0x00, 0xF8, 0xFF, 0xFF, 
  0xFF, 0xFF, 0x1F, 0x00, 0x00, 0x00, 0x00, 0x00, 0xFF, 0x0F, 0x00, 0x00, 
  0x00, 0xC0, 0xFF, 0xFF, 0xFF, 0xFF, 0x03, 0x00, 0x00, 0x00, 0x00, 0x00, 
  0xFF, 0x01, 0x00, 0x00, 0x00, 0x00, 0xFE, 0xFF, 0xFF, 0x3F, 0x00, 0x00, 
  0x00, 0x00, 0x00, 0x00, 0x1E, 0x00, 0x00, 0x00, 0x00, 0x00, 0x80, 0xFF, 
  0xFF, 0x01, 0x00, 0x00, 0x00, 0x00, 0x00, 0x00, };
